<svg width="25" height="25" viewBox="0 0 25 25" fill="none" xmlns="http://www.w3.org/2000/svg">
    <path d="M16.667 11.458a3.112 3.112 0 0 0 3.114-3.125 3.112 3.112 0 0 0-3.114-3.125 3.12 3.12 0 0 0-3.125 3.125 3.12 3.12 0 0 0 3.125 3.125zm-8.334 0a3.112 3.112 0 0 0 3.115-3.125 3.112 3.112 0 0 0-3.115-3.125 3.12 3.12 0 0 0-3.125 3.125 3.12 3.12 0 0 0 3.125 3.125zm0 2.084c-2.427 0-7.291 1.218-7.291 3.645v2.605h14.583v-2.605c0-2.427-4.865-3.645-7.292-3.645zm8.334 0c-.303 0-.646.02-1.01.052 1.207.875 2.051 2.052 2.051 3.593v2.605h6.25v-2.605c0-2.427-4.864-3.645-7.291-3.645z" fill="#fff"/>
</svg>
